<svg width="94" height="32" viewBox="0 0 94 32" fill="none" xmlns="http://www.w3.org/2000/svg">
<g clip-path="url(#clip0_1308_8962)">
<path d="M21.3701 19.5167C22.0425 23.6003 25.0012 25.8952 29.54 25.8952C33.7426 25.8952 36.4995 23.7353 36.4995 20.4617C36.3987 16.8506 33.8435 15.5682 29.6745 14.387C27.1529 13.6783 26.1107 13.1721 26.1107 12.2271C26.1107 11.1472 27.1866 10.4384 28.834 10.4384C30.5823 10.4384 31.8935 11.4171 32.465 13.307L36.1634 12.2608C35.7599 10.6747 34.8858 9.42598 33.5409 8.44732C32.1961 7.4686 30.6159 6.99609 28.834 6.99609C25.1021 6.99609 22.2779 9.291 22.2779 12.2946C22.4124 15.5007 24.5305 16.5469 28.4305 17.6606C31.4228 18.5718 32.6668 19.2468 32.6668 20.6304C32.6668 21.7441 31.4564 22.4528 29.54 22.4528C26.9512 22.4528 25.6063 21.2716 25.0348 18.5718L21.3701 19.5167Z" fill="white"/>
<path d="M39.1895 32.9824H43.2239V23.9716H43.2912C44.3334 25.1528 46.1153 25.8953 48.099 25.8953C52.7051 25.8953 56.0672 21.913 56.0672 16.4458C56.0672 10.9785 52.7051 6.99622 48.0654 6.99622C46.0817 6.99622 44.3671 7.70497 43.1903 8.91989H43.1231V7.5025H39.1895V32.9824ZM52.0326 16.4458C52.0326 19.9893 50.2843 22.183 47.4266 22.183C46.2498 22.183 45.2412 21.778 44.4343 20.968C43.6274 20.1243 43.2239 19.1119 43.2239 17.8632V14.9946C43.2239 12.5647 45.0395 10.7086 47.4938 10.7086C50.318 10.7086 52.0326 12.9022 52.0326 16.4458Z" fill="white"/>
<path d="M59.0859 25.389H63.1201V7.50244H59.0859V25.389Z" fill="white"/>
<path d="M66.835 25.3891H70.8698V15.3659C70.8698 12.531 71.9118 11.1136 73.9964 11.1136C74.5345 11.1136 75.1734 11.2149 75.9131 11.4173L76.6191 7.46878C75.9803 7.26631 75.2742 7.16504 74.4673 7.16504C72.8194 7.16504 71.4751 7.87373 70.7018 9.05493H70.634V7.50256H66.835V25.3891Z" fill="white"/>
<path d="M77.1289 16.4458C77.1289 22.0817 80.5579 25.8953 85.5003 25.8953C88.8963 25.8953 91.5184 24.4441 93.1321 21.6093L90.1735 19.4494C88.8285 21.508 87.4842 22.3855 85.5003 22.3855C82.979 22.3855 81.3311 20.4956 81.1967 17.627H93.6702V16.2433C93.6702 10.7761 90.3756 6.99622 85.4332 6.99622C80.5914 6.99622 77.1289 10.8773 77.1289 16.4458ZM81.2303 14.6571C81.3647 12.2609 83.147 10.506 85.4668 10.506C87.9881 10.506 89.5346 12.126 89.6696 14.6571H81.2303Z" fill="white"/>
<path d="M58.3193 2.69856C58.3193 1.20819 59.5265 0 61.0156 0C62.505 0 63.7119 1.20819 63.7119 2.69856C63.7119 4.18894 62.505 5.39713 61.0156 5.39713C59.5265 5.39713 58.3193 4.18894 58.3193 2.69856Z" fill="white"/>
<path d="M20.9709 25.3864H16.6953L15.304 21.3429L14.0146 17.6362L10.5194 7.62845H10.4515L6.95637 17.6362L5.6669 21.3429L4.2769 25.3832L3.95678 25.3864H0L8.55125 1.79895H12.4536L20.9709 25.3864Z" fill="white"/>
<path fill-rule="evenodd" clip-rule="evenodd" d="M16.8165 19.16C15.2793 21.1017 13.3244 22.6702 11.0976 23.7483C8.87089 24.8265 6.3914 25.3865 3.95703 25.3865V21.3729C5.82679 21.3729 7.6724 20.9495 9.35603 20.1342C11.0397 19.3191 12.5178 18.1331 13.6801 16.665L16.8165 19.16Z" fill="white"/>
</g>
<defs>
<clipPath id="clip0_1308_8962">
<rect width="94" height="32" fill="white"/>
</clipPath>
</defs>
</svg>
